<svg width="18" height="18" viewBox="0 0 18 18" fill="none" xmlns="http://www.w3.org/2000/svg">
<path fill-rule="evenodd" clip-rule="evenodd" d="M17 9C17 13.4183 13.4183 17 9 17C4.58172 17 1 13.4183 1 9C1 4.58172 4.58172 1 9 1C13.4183 1 17 4.58172 17 9ZM18 9C18 13.9706 13.9706 18 9 18C4.02944 18 0 13.9706 0 9C0 4.02944 4.02944 0 9 0C13.9706 0 18 4.02944 18 9ZM9.64444 11.1318L9.75556 4H8.24444L8.35556 11.1318H9.64444ZM8.29444 13.7432C8.49074 13.9144 8.72593 14 9 14C9.18519 14 9.35185 13.9612 9.5 13.8837C9.65185 13.803 9.77222 13.6964 9.86111 13.564C9.9537 13.4315 10 13.2862 10 13.1279C10 12.8889 9.90185 12.6838 9.70556 12.5126C9.50926 12.3414 9.27407 12.2558 9 12.2558C8.72593 12.2558 8.49074 12.3414 8.29444 12.5126C8.09815 12.6838 8 12.8889 8 13.1279C8 13.3669 8.09815 13.572 8.29444 13.7432Z" fill="#E54646"/>
</svg>
