<svg width="24" height="20" viewBox="0 0 24 20" fill="none" xmlns="http://www.w3.org/2000/svg">
<rect width="24" height="20" fill="white"/>
<path d="M5.41108 17.9763C5.40851 17.8992 5.42179 17.8225 5.45011 17.7508C5.47842 17.679 5.52117 17.6139 5.57569 17.5594C5.63021 17.5049 5.69535 17.4621 5.76707 17.4338C5.83878 17.4055 5.91556 17.3922 5.99262 17.3948C6.34985 17.3948 6.57323 17.6634 6.57323 17.9763C6.5758 18.0534 6.56252 18.1301 6.53421 18.2019C6.50589 18.2736 6.46315 18.3387 6.40862 18.3932C6.3541 18.4478 6.28896 18.4905 6.21725 18.5188C6.14553 18.5471 6.06876 18.5604 5.99169 18.5578C5.63446 18.6022 5.41108 18.3335 5.41108 17.9763ZM6.93046 17.9763V17.0375H6.528V17.3052C6.45515 17.2083 6.36077 17.1297 6.25232 17.0756C6.14386 17.0214 6.0243 16.9932 5.90308 16.9932C5.36677 16.9932 4.96431 17.3957 4.96431 17.9763C4.96431 18.5578 5.36677 18.9594 5.90308 18.9594C6.17077 18.9594 6.34985 18.8698 6.48369 18.6917V18.9151H6.88616V17.9754H6.93046V17.9763ZM20.6511 17.9763C20.6485 17.8992 20.6618 17.8225 20.6901 17.7508C20.7184 17.679 20.7612 17.6139 20.8157 17.5594C20.8702 17.5049 20.9353 17.4621 21.0071 17.4338C21.0788 17.4055 21.1556 17.3922 21.2326 17.3948C21.5898 17.3948 21.8132 17.6634 21.8132 17.9763C21.8158 18.0534 21.8025 18.1301 21.7742 18.2019C21.7459 18.2736 21.7031 18.3387 21.6486 18.3932C21.5941 18.4478 21.529 18.4905 21.4572 18.5188C21.3855 18.5471 21.3088 18.5604 21.2317 18.5578C20.8292 18.6022 20.6511 18.3335 20.6511 17.9763ZM22.1262 17.9763V16.2778H21.7237V17.3062C21.5898 17.1271 21.4098 16.9923 21.1422 16.9923C20.6068 16.9923 20.2043 17.44 20.2043 17.9763C20.2043 18.5578 20.6058 18.9594 21.1422 18.9594C21.4098 18.9594 21.5898 18.8698 21.7237 18.6917V18.9151H22.1262V17.9754V17.9763ZM11.9354 17.3948C12.204 17.3948 12.3831 17.5738 12.4274 17.8425H11.4443C11.4895 17.5748 11.6677 17.3957 11.9363 17.3957L11.9354 17.3948ZM11.9815 16.9932C11.4443 16.9932 11.0418 17.3957 11.0418 17.9763C11.0418 18.5578 11.4443 18.9594 11.9806 18.9594C12.2483 18.9594 12.5169 18.8698 12.7403 18.6917L12.5622 18.3778C12.4087 18.4964 12.2197 18.5595 12.0258 18.5569C11.7582 18.5569 11.5338 18.4231 11.4895 18.1102H12.8742V17.9763C12.8298 17.3948 12.4735 16.9932 11.9815 16.9932ZM16.8517 17.9763C16.8491 17.8992 16.8624 17.8225 16.8907 17.7508C16.919 17.679 16.9618 17.6139 17.0163 17.5594C17.0708 17.5049 17.136 17.4621 17.2077 17.4338C17.2794 17.4055 17.3562 17.3922 17.4332 17.3948C17.7905 17.3948 18.0148 17.6634 18.0148 17.9763C18.0173 18.0534 18.0041 18.1301 17.9757 18.2019C17.9474 18.2736 17.9047 18.3387 17.8502 18.3932C17.7956 18.4478 17.7305 18.4905 17.6588 18.5188C17.5871 18.5471 17.5103 18.5604 17.4332 18.5578C17.076 18.6022 16.8517 18.3335 16.8517 17.9763ZM18.372 17.9763V17.0375H17.9695V17.3052C17.8357 17.1271 17.6566 16.9932 17.388 16.9932C16.8526 16.9932 16.4502 17.3957 16.4502 17.9763C16.4502 18.5578 16.8517 18.9594 17.388 18.9594C17.6566 18.9594 17.8357 18.8698 17.9695 18.6917V18.9151H18.372V17.9754V17.9763ZM14.5726 17.9763C14.5726 18.5578 14.9751 18.9594 15.5557 18.9594C15.8234 18.9594 16.0034 18.9151 16.2268 18.736L16.0477 18.4231C15.9138 18.5126 15.7348 18.6022 15.5557 18.6022C15.4787 18.6046 15.402 18.5912 15.3304 18.5628C15.2588 18.5345 15.1938 18.4917 15.1394 18.4372C15.0849 18.3827 15.0423 18.3176 15.014 18.2459C14.9858 18.1743 14.9725 18.0976 14.9751 18.0206C14.9751 17.6634 15.1985 17.44 15.5566 17.44C15.7348 17.44 15.9138 17.4852 16.0477 17.6191L16.2268 17.3052C16.0477 17.0828 15.8686 16.9932 15.5557 16.9932C14.9751 16.9932 14.5726 17.44 14.5726 17.9763ZM19.8018 16.9932C19.5785 16.9932 19.3994 17.0828 19.3098 17.2609V17.0375H18.9083V18.9151H19.3098V17.8868C19.3098 17.5738 19.4446 17.3957 19.7123 17.3957C19.8018 17.3957 19.8914 17.3957 19.98 17.44L20.1148 17.0828C19.9809 17.0375 19.8923 16.9932 19.8018 16.9932ZM8.94185 17.2166C8.76277 17.0828 8.49508 17.0375 8.18216 17.0375C7.69016 17.0375 7.42246 17.2609 7.42246 17.6191C7.42246 17.932 7.64585 18.1102 8.04831 18.1545L8.22646 18.2006C8.44985 18.244 8.54031 18.2892 8.54031 18.3788C8.54031 18.5126 8.40554 18.6022 8.09262 18.6022C7.82493 18.6022 7.60062 18.5126 7.46677 18.4231L7.28769 18.7369C7.512 18.9151 7.77969 18.9594 8.09262 18.9594C8.62893 18.9594 8.94185 18.6917 8.94185 18.3335C8.94185 18.0206 8.71846 17.8425 8.27169 17.7982L8.09262 17.752C7.91354 17.7086 7.77969 17.7086 7.77969 17.5738C7.77969 17.44 7.91354 17.3505 8.13692 17.3505C8.36031 17.3505 8.58462 17.44 8.71846 17.5295L8.94185 17.2166ZM14.1711 16.9932C13.9477 16.9932 13.7686 17.0828 13.6791 17.2609V17.0375H13.2766V18.9151H13.6791V17.8868C13.6791 17.5738 13.8129 17.3957 14.0815 17.3957C14.1702 17.3957 14.2597 17.3957 14.3492 17.44L14.4831 17.0375C14.3492 17.0375 14.2597 16.9932 14.1711 16.9932ZM10.6846 17.0375H10.0145V16.456H9.612V17.0375H9.25477V17.44H9.612V18.2892C9.612 18.736 9.79108 18.9594 10.2822 18.9594C10.4556 18.9631 10.6265 18.9166 10.7742 18.8255L10.6403 18.4683C10.5055 18.5569 10.3726 18.5569 10.2822 18.5569C10.0588 18.5569 10.0145 18.4231 10.0145 18.2449V17.44H10.6846V17.0375ZM4.65231 18.9151V17.752C4.65231 17.3062 4.38462 16.9932 3.93693 16.9932C3.80901 16.9925 3.68253 17.0202 3.56663 17.0743C3.45073 17.1284 3.34831 17.2076 3.26677 17.3062C3.19402 17.2088 3.09958 17.1297 2.99094 17.0753C2.8823 17.0208 2.76246 16.9924 2.64093 16.9923C2.46277 16.9923 2.23939 17.0385 2.10554 17.2609V17.0375H1.70308V18.9151H2.10462V17.8868C2.10462 17.5738 2.28369 17.3957 2.55139 17.3957C2.81908 17.3957 2.95385 17.5738 2.95385 17.8868V18.9151H3.35631V17.8868C3.35631 17.5738 3.53539 17.3957 3.80308 17.3957C4.07077 17.3957 4.20554 17.5738 4.20554 17.8868V18.9151H4.65231Z" fill="#231F20"/>
<path d="M14.9659 13.9046H8.81631V2.85539H14.9659V13.9028V13.9046Z" fill="#FF5F00"/>
<path d="M9.20955 8.35877C9.20955 6.12493 10.2379 4.11262 11.8911 2.81662C10.6846 1.87877 9.16616 1.29723 7.55632 1.29723C6.63423 1.29492 5.72077 1.47482 4.86842 1.82659C4.01606 2.17836 3.24161 2.69507 2.58955 3.34705C1.93749 3.99902 1.42068 4.7734 1.06879 5.62571C0.71691 6.47802 0.536893 7.39145 0.539085 8.31354C0.536771 9.23571 0.716698 10.1492 1.06853 11.0017C1.42036 11.8541 1.93715 12.6286 2.58923 13.2806C3.2413 13.9327 4.01579 14.4495 4.8682 14.8013C5.72062 15.1532 6.63415 15.3331 7.55632 15.3308C9.20955 15.3308 10.6846 14.7492 11.8911 13.8114C10.2379 12.604 9.20955 10.5935 9.20955 8.35877Z" fill="#EB001B"/>
<path d="M23.2615 8.35878C23.2637 9.28086 23.0837 10.1943 22.7318 11.0466C22.38 11.8989 21.8631 12.6733 21.2111 13.3253C20.559 13.9772 19.7846 14.494 18.9322 14.8457C18.0799 15.1975 17.1664 15.3774 16.2443 15.3751C14.5911 15.3751 13.116 14.7935 11.9095 13.8557C13.5628 12.5597 14.5911 10.5935 14.5911 8.31447C14.5911 6.03447 13.5628 4.06831 11.9095 2.77231C13.116 1.83355 14.6354 1.25293 16.2443 1.25293C20.088 1.34155 23.2615 4.47078 23.2615 8.35878Z" fill="#F79E1B"/>
</svg>
