<svg width="24" height="20" viewBox="0 0 24 20" fill="none" xmlns="http://www.w3.org/2000/svg">
<rect width="24" height="20" fill="white"/>
<path d="M13.5389 7.98571L12.0857 11.1171H11.9389V7.31085H9.86343V13.7109H11.5846C12.0514 13.7109 12.4663 13.4423 12.6657 13.0274L14.1269 9.90514H14.2743V13.7109H16.3497V7.31142H14.6029C14.1531 7.31142 13.7291 7.57942 13.5389 7.98571ZM5.82457 8.15028L4.968 11.1166H4.82114L3.956 8.15028C3.88481 7.90757 3.73672 7.69454 3.53401 7.54325C3.3313 7.39197 3.08494 7.31061 2.832 7.31142H0.782288V13.7114H2.85714V9.90571H3.00457L4.19772 13.7114H5.58286L6.776 9.90571H6.92343V13.7114H8.99886V7.31142H6.94857C6.42972 7.31142 5.96286 7.64857 5.82457 8.15028ZM17.2149 10.1657V13.7114H19.2903V11.6354H21.5217C21.9798 11.6368 22.4271 11.4962 22.8019 11.2329C23.1768 10.9696 23.4608 10.5965 23.6149 10.1651L17.2149 10.1657Z" fill="#319B42"/>
<path d="M21.4612 7.31143H16.8429C17.1286 8.83315 18.46 9.90572 20.06 9.90572H23.6492C23.6773 9.75745 23.6918 9.60692 23.6926 9.456C23.6926 8.21943 22.6983 7.31143 21.4612 7.31143Z" fill="url(#paint0_linear_3_35)"/>
<defs>
<linearGradient id="paint0_linear_3_35" x1="16.8429" y1="8.60857" x2="23.6926" y2="8.60857" gradientUnits="userSpaceOnUse">
<stop stop-color="#00A3E1"/>
<stop offset="0.304" stop-color="#009ADD"/>
<stop offset="0.799" stop-color="#0082D4"/>
<stop offset="1" stop-color="#0076CF"/>
</linearGradient>
</defs>
</svg>
