<svg width="24" height="20" viewBox="0 0 24 20" fill="none" xmlns="http://www.w3.org/2000/svg">
<rect width="24" height="20" fill="white"/>
<path d="M15.276 6.36333C13.6407 6.36333 12.178 7.21199 12.178 8.77799C12.178 10.5753 14.7713 10.7 14.7713 11.6013C14.7713 11.982 14.3347 12.3213 13.592 12.3213C12.536 12.3213 11.7467 11.846 11.7467 11.846L11.408 13.4287C11.408 13.4287 12.3167 13.83 13.5233 13.83C15.3127 13.83 16.72 12.9393 16.72 11.3453C16.72 9.44733 14.116 9.32733 14.116 8.48733C14.116 8.18999 14.4733 7.86266 15.216 7.86266C16.0533 7.86266 16.736 8.20866 16.736 8.20866L17.066 6.68199C17.066 6.68399 16.3233 6.36333 15.276 6.36333ZM0.306663 6.47866L0.266663 6.70933C0.266663 6.70933 0.954663 6.83599 1.57533 7.08733C2.37333 7.37599 2.43066 7.54399 2.56466 8.06533L4.02933 13.712H5.99266L9.01933 6.47866H7.06L5.11533 11.3967L4.322 7.22799C4.25 6.75066 3.88133 6.47866 3.42866 6.47866H0.306663ZM9.80733 6.47866L8.27133 13.71H10.14L11.6687 6.47866H9.80666H9.80733ZM20.2273 6.47866C19.7773 6.47866 19.5373 6.72066 19.362 7.14066L16.626 13.71H18.5847L18.9627 12.614H21.35L21.5807 13.71H23.3107L21.8013 6.47866H20.2273ZM20.4827 8.43199L21.064 11.1473H19.5067L20.482 8.43199H20.4827Z" fill="url(#paint0_linear_3_28)"/>
<defs>
<linearGradient id="paint0_linear_3_28" x1="0.266663" y1="10.096" x2="23.3093" y2="10.096" gradientUnits="userSpaceOnUse">
<stop stop-color="#20225F"/>
<stop offset="0.2" stop-color="#1A1F61"/>
<stop offset="0.41" stop-color="#172272"/>
<stop offset="0.595" stop-color="#152682"/>
<stop offset="0.802" stop-color="#12288E"/>
<stop offset="1" stop-color="#0E2C9A"/>
</linearGradient>
</defs>
</svg>
